# xmcd
#
# Track frame offsets:
#  150
#  21813
#  34122
#  48039
#  74714
#  92489
#  104644
#  133362
#  145824
#  169562
#  188290
#  204891
#  228927
#  243965
#  265972
#  273242
#
# Disc length: 3870 seconds
#
# Revision: 0
# Processed by: cddbd v1.5.1PL2 Copyright (c) Steve Scherf et al.
# Submitted via: Collectorz.com_Music_Collector 6.10
#
DISCID=d70f1c10
DTITLE=A Crossroads Deal - Let´s Boogie To Chicago
DYEAR=1996
DGENRE=Blues
TTITLE0=Little By Little
TTITLE1=Sick and Tired
TTITLE2=I Want To Be Loved
TTITLE3=They Called Him Muddy Waters
TTITLE4=Everything's Gonna Be Allright
TTITLE5=Transposed Key Boogie
TTITLE6=Crawlin' Kingsnake
TTITLE7=Oh What A Price
TTITLE8=Let's Boogie To Chicago
TTITLE9=Bits and Bytes Boogie
TTITLE10=Folsom Prison Blues
TTITLE11=Evil Ways
TTITLE12=Digi Tonk Train Blues
TTITLE13=Come In This House
TTITLE14=Roamin' At The Ramp
TTITLE15=Key To The Highway
EXTD=
EXTT0=
EXTT1=
EXTT2=
EXTT3=
EXTT4=
EXTT5=
EXTT6=
EXTT7=
EXTT8=
EXTT9=
EXTT10=
EXTT11=
EXTT12=
EXTT13=
EXTT14=
EXTT15=
PLAYORDER=
